<?xml version="1.0" encoding="UTF-8"?>
<svg width="752pt" height="752pt" version="1.1" viewBox="0 0 752 752" xmlns="http://www.w3.org/2000/svg">
 <defs>
  <clipPath id="a">
   <path d="m139.21 165h473.58v422h-473.58z"/>
  </clipPath>
 </defs>
 <g clip-path="url(#a)">
  <path d="m376 586.49h-2.1211c-2.9805-0.51953-5.75-1.8789-7.9844-3.918-2.2344-2.0391-3.8438-4.6719-4.6367-7.5898l-43.168-235.15-173.52-148.01c-2.4258-1.9727-4.1445-4.6758-4.8984-7.707-0.75781-3.0312-0.50781-6.2266 0.71094-9.1055 1.8711-5.8789 7.4688-9.7539 13.629-9.4414h443.83c2.5625 0 5.082 0.67578 7.2969 1.9609 2.2148 1.2852 4.0547 3.1367 5.3242 5.3594 3.1758 4.3828 3.1758 10.309 0 14.691l-221.89 391.59c-2.3789 4.707-7.3008 7.5742-12.57 7.3203zm-180.89-392.44 147.17 124.79c2.7227 2.0586 4.6055 5.0352 5.3008 8.3789l36.805 200.52 189.33-333.84z"/>
 </g>
 <path d="m333.57 349.43c-5.1562-0.19141-9.7852-3.207-12.039-7.8516-1.8984-3.2148-2.5117-7.0312-1.7148-10.68 0.79688-3.6484 2.9453-6.8633 6.0117-8.9961l1.2734-0.74219 261.03-149.71c3.2969-1.918 7.2422-2.3789 10.895-1.2734 3.6523 1.1055 6.6797 3.6797 8.3555 7.1094 1.8477 3.4453 2.3281 7.4609 1.3438 11.246-0.98437 3.7852-3.3555 7.0586-6.6484 9.1719l-261.61 150.88c-2.2266 0.70312-4.5625 0.98828-6.8945 0.85156z"/>
</svg>
